<mxfile host="65bd71144e">
    <diagram id="qT5VL_Rf-bBIzpP5OloC" name="Page-1">
        <mxGraphModel dx="1138" dy="753" grid="1" gridSize="10" guides="1" tooltips="1" connect="1" arrows="1" fold="1" page="1" pageScale="1" pageWidth="850" pageHeight="1100" math="0" shadow="0">
            <root>
                <mxCell id="0"/>
                <mxCell id="1" parent="0"/>
                <mxCell id="3" value="" style="rounded=0;whiteSpace=wrap;html=1;fillColor=#1ba1e2;fontColor=#ffffff;strokeColor=#006EAF;" parent="1" vertex="1">
                    <mxGeometry x="90.2" y="80" width="859.8" height="120" as="geometry"/>
                </mxCell>
                <mxCell id="5" value="" style="rounded=0;whiteSpace=wrap;html=1;fillColor=#f5f5f5;strokeColor=#666666;fontColor=#333333;" parent="1" vertex="1">
                    <mxGeometry x="90" y="200" width="860" height="60" as="geometry"/>
                </mxCell>
                <mxCell id="6" value="" style="whiteSpace=wrap;html=1;aspect=fixed;fillColor=#a20025;strokeColor=#6F0000;fontColor=#ffffff;" parent="1" vertex="1">
                    <mxGeometry x="90" y="260" width="860" height="860" as="geometry"/>
                </mxCell>
                <mxCell id="7" value="" style="html=1;shadow=0;dashed=0;shape=mxgraph.bootstrap.rrect;rSize=5;strokeColor=none;html=1;whiteSpace=wrap;fillColor=#6C767D;fontColor=#ffffff;sketch=0;" parent="1" vertex="1">
                    <mxGeometry x="180" y="215" width="150" height="30" as="geometry"/>
                </mxCell>
                <mxCell id="8" value="1" style="strokeColor=inherit;fillColor=inherit;gradientColor=inherit;fontColor=inherit;html=1;shadow=0;dashed=0;shape=mxgraph.bootstrap.leftButton;rSize=5;perimeter=none;whiteSpace=wrap;resizeHeight=1;sketch=0;" parent="7" vertex="1">
                    <mxGeometry width="30" height="30" relative="1" as="geometry"/>
                </mxCell>
                <mxCell id="9" value="2" style="strokeColor=inherit;fillColor=inherit;gradientColor=inherit;fontColor=inherit;html=1;shadow=0;dashed=0;perimeter=none;whiteSpace=wrap;resizeHeight=1;sketch=0;" parent="7" vertex="1">
                    <mxGeometry width="30" height="30" relative="1" as="geometry">
                        <mxPoint x="30" as="offset"/>
                    </mxGeometry>
                </mxCell>
                <mxCell id="10" value="Dropdown" style="strokeColor=inherit;fillColor=inherit;gradientColor=inherit;fontColor=inherit;html=1;shadow=0;dashed=0;shape=mxgraph.bootstrap.rightButton;rSize=5;perimeter=none;whiteSpace=wrap;resizeHeight=1;align=left;spacing=10;sketch=0;" parent="7" vertex="1">
                    <mxGeometry x="1" width="90" height="30" relative="1" as="geometry">
                        <mxPoint x="-90" as="offset"/>
                    </mxGeometry>
                </mxCell>
                <mxCell id="11" value="" style="shape=triangle;direction=south;fillColor=#ffffff;strokeColor=none;perimeter=none;sketch=0;" parent="10" vertex="1">
                    <mxGeometry x="1" y="0.5" width="10" height="5" relative="1" as="geometry">
                        <mxPoint x="-17" y="-2.5" as="offset"/>
                    </mxGeometry>
                </mxCell>
                <mxCell id="12" value="Large select" style="html=1;shadow=0;dashed=0;shape=mxgraph.bootstrap.rrect;rSize=5;strokeColor=#505050;strokeWidth=1;fillColor=#ffffff;fontColor=#777777;whiteSpace=wrap;align=left;verticalAlign=middle;fontStyle=0;fontSize=18;spacing=20;" parent="1" vertex="1">
                    <mxGeometry x="520" y="210" width="260" height="40" as="geometry"/>
                </mxCell>
                <mxCell id="13" value="" style="shape=triangle;direction=south;fillColor=#495057;strokeColor=none;perimeter=none;" parent="12" vertex="1">
                    <mxGeometry x="1" y="0.5" width="10" height="5" relative="1" as="geometry">
                        <mxPoint x="-17" y="-2.5" as="offset"/>
                    </mxGeometry>
                </mxCell>
                <mxCell id="14" value="FOOTER" style="rounded=0;whiteSpace=wrap;html=1;fillColor=#1ba1e2;fontColor=#ffffff;strokeColor=#006EAF;" parent="1" vertex="1">
                    <mxGeometry x="90" y="1120" width="860" height="110" as="geometry"/>
                </mxCell>
                <mxCell id="15" value="" style="shape=image;verticalLabelPosition=bottom;labelBackgroundColor=default;verticalAlign=top;aspect=fixed;imageAspect=0;image=data:image/jpeg,/9j/4AAQSkZJRgABAQAAAQABAAD/2wCEAAkGBxMTEhUSExMWFRUXGBoaFxcXGBcYGhoaGB0XFxoaGBoYHSggGBolHRcXITEhJSorLi4uFx8zODMtNygtLisBCgoKDg0OGhAQGy0lICUtLS0vLS0tLS0tLS0tLS0tLS0tLS0tLS0tLS0tLS0tLS0tLS0tLS0tLS0tLS0tLS0tLf/AABEIAQ4AuwMBIgACEQEDEQH/xAAbAAACAwEBAQAAAAAAAAAAAAADBAIFBgEAB//EAEcQAAIBAgQDBgQEBAIIBAcBAAECEQADBBIhMQVBUSJhcYGRoQYTMrFCwdHwI1Ji4XLxBxQVJDOSorJDU2OCRHOTo7PC0hb/xAAaAQADAQEBAQAAAAAAAAAAAAABAgMEAAUG/8QAJxEAAgICAgEEAQUBAAAAAAAAAAECEQMhEjEEEyJBUXEFFCMyYcH/2gAMAwEAAhEDEQA/APmmc1wP1qXQHY/eoi3Mrz5VtlNbV9CJHDodak9vpRcLLdkKCe8Ax4ztTayIDG2pHREPrA0rNPK1+SigVdthsaaXCvH0nKeZ0HqdKdbEsPxOB1zBB4aaGhLiF1m4xPRAxPmWIA96WU72g8aBpw9+QkdeXvXhw6To6nuXM5/6RRWxAOyA97E3D7wvtXnxLEanTpy9Nh6UvqSDwQS3w8iQCfMAe0lvauPgQN7lsdfqn0y0rdxXIny/ttUg3ZDAjWdOkdfGrKWSekhGooMbNsDV2Y/0rlHqxn2qAuoNMk/4mJ/7ctDJGx0P4ehqPDrbXJ20Ez05AEDeTA86LxzT26ByiGbFNECFHQAD3396EcxMQZ85pkIjmUG69pQfKVn8Q6edKYfC3MxKmddGHeJB8CD70fTt022dzoPhcMzuE2JEjNpptQ7vZMHk0Gptwy5ObSdNAf3+zTF2w146qwY/U5EbdepPXSqLBXwK8jFmtawDBiVPIjvpdLhlp3iDRXwTknSCgEgk696mI8qKltMpBzrcOg7MjkQZnuI8COlNVdIXv5ErDkEQd+vWjtiZXQGSY8+7qdR61E4I7GAdZOv7H9qO6DWOyG3AiJGkrOqnU7Hn5U0Y5OkgaA4QXCxXeOpj7899O40N7hJJ9qM6gkk6yZPj1jrQbq9Kb051tnaB2nOs1OaGRXKKjQT1x9Z37qfW1bIVmdge5Rp3Ek/lVeI1muriDyjxrJmg5S0Ug6LBmtmYVp/mJB8DAgVG4QBEgd5gn02HpPfSioWSZJObKfAjQ+oNDuHtNG0kDwnSo4sfJtNjyn/gV76bmWPU6/evfO0nLHSddfypk8OCEK/1xmf+gcljm2o8yB1pTEXAx2IA5DX/ADPU0YxU390ByaR6zfY7n09KibR23O451PCqCCNZ5e8g9+x8qaa0OyQdQIKwZ2iekHfzrZDGuK0RcmLPamDIA2JnbxinLOHyAEtnDcl1gdTMelGtjshYEDXl5eMe1EC1aGF3bYrkV+KssFViCVmJjYkbemtO8LtlbZGUS8SddgSYjlrHpXb1oOI7xTtkaxFMsK5WwOQsnCSdbZyn2n8qewOCdEVW3E+5Jj3q0wdmdv0po2utMoxUrQNsqhaot1YAqxTDgkacwKUdNKewdFfd12pK6tWT245UB0mmAVrSDPMgg+B0O9BDAGSAe4zr6EGnL9s0o4rqGTAkUG4KYZd6C9JIIFXIIYbjbQH2OlAimLzD8Mxpv1jXblMx3UGKiMgL6Go8xTVm1muIDsWE+HP2qbYpRrbt5GO5JzRO4TTsj1Ou9ZZNqVDpDHDrZ+XeYfgyPHh8z+w86X4dbVmLOdF1y83PJB4nfummLLAWr7GJZQqjrmuIWjyBpT5nZVV0OuY+OmnlHqazR5OUkvlj60ExVwsTJljqxG09B3UBBREGldQa1vxYVBE3KwtrSm01pdEoymKu5xhqTEUW+hhEJBIGgiT0nauiuKKKqVZCE7S1YWIApO2o5mN+U68h60W2SdK4Bb4VqctsOdVmEmrrBYdCRmuovjm/SpydDoYwWCf51pSNGZYPIgkailk4SzE8gPqYjQAbk19H+GsAoUdpHCmViZB7p5d3dRuN4O2LZWVQdDzPUnWsn7n3UNx0fH8Uo2Exy/vSZTer3iWDVSf4iE8guY/cVQ418pE8+fIePStsZJoiwF8DlrPt3d9I37PPl+n+Yp64lKPdmRzFMcmIuKXK0e9cC77naoq0iaV03Q9izLUQBRbhrqXyBGVD4iTSNDCN46VBVo10TU0FQcLlY90du/So7/0r1wCRH8q+uUT7zXSZg935VC4NazeMvc2NLokK5FeSiO2YyYHgAB6DQVuRMJZP60w23cTv6Uva0qdy4ckScokhZMAmJIHXQelK4upv/P8AgV8FjYt6wDI01g8xr6HTyouJbIcoief6VPDEJmLLKq0abkzooJ/cSaGuFLGSdWOvnWTzPJ4RUYvZbBi5Ntnb1xysCPQfca0vZx8HtLpzg/rWjt8GbJnACJ/MxAmN4zGqvEXMAhy3WZyd2twwHnt6TXnYvMnemzTPBEsLBnancK0GaSTBLZg23+ZauAMjzMHmp6HUH1o1tq9zDk9WCkYJx4yo3Hw7xqLlu2ugLKO8yYJPtA8a9xfj+fskwdtIg8iD9waznB3i/aP/AKif9wpR3oejHlYrlohxC7rVFieJ2tVLexp3iWJKAnKCPEzPSIrH4pwWPYjzk+Zo5MvHSFSseGMyTBzLyj96UsmKMm4Ttp4iq5jyqasVj7VnWaQ/FHL9xmaZ1P7irJVgAc4qrc6j105VMXCDoabFk4ttgcbH7lg5c0aTE8p3ietAkVBcXOjetRbetHNPoCTITXBf6URlG51oN6ecdwAHvG1RyNrofsewuHYr3aL5sTH2NJ/MjSZq8RQLNw8hcsE+lys/baKw+NNttlciqhkIRpM8/wBR+++pqK5aII0rq16cEq0QYZKndtmI5kSIIO4nl+xQV3gUzYsHXWNCCP3zPSl8jPHHB2Pjg5PRaMk5QBAHLnJ3J7/yAp8WO1bGwJ7TdFGpPpUOH4fPiIJ7I1YjpH7HnR+O3DetE2FKWlIzMdyBMzGy93hXzc5uctnqRSihO47Yi4127OQA5F1IVR9KgDbTcik8RYtMAXtm3I5845r3U3f4llRQiiD9R03nl6UH4k4wmI+X8pCkLBBjeZgHmP0FGGNt0GU40S4SuSzlkwWLBd4BAAPjVhZu0C7byNlHIAecCfepo4r6fx4KONJHjZJXJlnYvwQRyIPpUmNV6XaIL9UcRLPXsp3APjVVi+Hox28e/wAafu3Ko+LYh10BhT03PWTypZqKVtHJiXFQgaFA0GscjVW7E0RmLcvIVMwQO79zWCXvbZVaAoBIrgQ7c5rt23EgnUUbCmDBrordMNgYiQaZuWiDBHIHyIBB9CKNdt14WxWuOLiLYm5J1H776Hl5k70aaG528az5I6sdFpdun5bpGjFT4ZNfzNV9pYIG86Vb2kkXNNkuH0FsfnVWF7QNZ/EjcXX2Pl0yarBI6j85/KiW+f6VNQDR8JZGuYQJ3/KtufIsUGxMcObo5ZsMyZtAoOumpJ76sRhgluRsZ/Kn8LhBqB9LiPOkGuxhzO4MfYV4M5ymz0IwUUW3CnYXBlTNmZdCDr2G0+2tOcaZsPh+0mQk6ow3Vt4/fOhcCuAGxmP/ABATtEZUQCfEmPer7juAN22ustadXUHWRIDL6S0f00VjXER5KkYHiHCLqJmcouWDkBzEZgCATEZh01iN67w7BlQLhUnp0Hea0PxRbVbNoNILXZc9ViPUE+5qzGX/AFdWC/S8N4cvKrKSg02rFS5LRlHaa5mij8asfLukciAw8G1pLPX0GOanFSR5s006YwjmiK9LpdFeL0woZ2qj4lem5l3AEeZ3q1L1XrhgN95kk9anki5aQYid62ETvgj/AJt6WwtiRP7Iq0uLIihWrWUQKR4U5L6HUtCmLABBOoiDTDYUFQeWwMidAOW/Ma/3qGOXs+FdtXAEUnoKHFc2mH4PNoNT50t/rPdQ8TiCxgaDl/eoBu6fKklm3URqDFaVdu1TN54oH4I5kz5DQfnUsz+BkaKxdUC9Jgm00d5JTT/pqoGtN24hp/8ALb1zCPcikql4eov8j5dsasJM9wk+w+5FWmG5DITMR1PlVdgX3UfiIny/c+VX2EtncHKWmW5i2NIXoTUfMnc6+iuBUhvDoEB7QjQ5Se0D4Ulg8Gbrsmy59+sa0P57Eu34U+leU9e8761Y4bGJbylmAA179tTHM1l4NF4zUnX0M4rCJbW2E3EgHNMAakbbya0HBeOr8tc1sSFhmkmdCJjkT186zOK4kLp7KkAAwWOpnSe4abCh4ZyLJI/l/vRjfEyZpVk0M/FgN1WAB0EqgMwdCYPMx9q9wfGlsJcB/wDLzD/2H+1WGDtpdUZpGxBG4O/ZOxH9J2pP4i4W1oNcs/TcBV1HIn8QHIHn0PjUpPlr5NeODgrPfGCBreHvgfUpUnwgj86zAFajA2Llzh5tMjShDW20IMTIkHppWXBr2f03JeLj9OjF5Uanf2czURWocVBrtegZhqaBdNeW7pUGNccRAqMd9SJqDtXHEc5Go6H7RSmCErB5SKZY0sXC3LnQsT66/Y1GeppjpaBMBlLDlt9hFcSyIH6103I2j0BHoaiDSJJMajmMG1RuJy6aeg/U13EtqvdrUmPajv8A0FZp/wBmxkPXZCP/APLH/etVtu6SdT71a3xNq6Tytr/+RRVMLZ3rL47dMpl7LjhKFjA3JgeelaTEMFViObBF/wAKz/c+dZv4fBFzNyGoqzxN7sL4MfyFR8h3lNGHUDttf93Y9dfU0m1kZbYOmZoPgYqxtD/dT4UhjdrQ57+60ydWZMb9xapb/iXgNP4jgaRpmYefjTGWEy91cgC9dExLsTO2rNt5R60O7ihnCJ2m9h41JW6QuZe9g8FjbyMLdtGuE6ZVnlpPh41usJwbEumuVTH0sxMd2gNZfA482Vy29yQC0anrrWpb4hWxh1d9yAdN+1MV6D8OHHlMePk5EqRR2sNfwdzI4KrdMRujEEajlmjz2rJY6BccDbM33Na+18dpePyb1j+E3MGWDfzKI7LeH51ieJoUvOpIOsgjZlbVWHiCDTeHGMcknF9nZG3BJg7j0PNUHNQDV6DZGhgNXQ9Cz13NRTBRJmqOaolqjNGwnXNIX2PzNecfaKba5SWKbteH+dZs70vyMghWji5GgCnvyj8xNCL6VGabR1gr/wBQ8qYy9sfvn/alLlxtCY7qZs3Zfv76xyaqQy7Q9iL/APCYAbqAZ7nU/lSdv9/nRMUhUa/itqfsaFZGlJ4ekymV7LPhZyqfCpn6BP8AL+dIWL0U+EzWrh5Koj1NQ8mFZOX2WwyuND3D7gawwHQ0riz/ABrY5DL95/SqvA45rcwJBEQaZVybec75vsKV0ShjqVllx/6ywJUljPt/eo4C18tNfqbryHShqhuYi6SeypnzIFP4YZ7g9T4CtXiYrVslmfuYe6uUhf5VJPiahxXh93FXWKtCLlVd40UT6THrUoLLcfkTAqxwVlXRkLR2iVbnv057VT9QlxgkN4cOU9heG/CoKwG7YMzE69IrF8SvZ7rHvgeC6D7V9A4dhoTN864wzE6NoVVGdgd4WFOnhXzf71P9Pi9yZXy2k1FHCK4woyWWOwP2+9XWCtWrYAcA3G5mCFGuwI969IyFdxK0qi2VUrK6g+Wvjr70nNaJyua2x/D/ADjujn4e9I4+2txpTKB1UADwhRp4zXHFOWqLwaYx2HKREsOsdN9iaTulteyfGklJIJy5cEjoaFjQOzHTXyAH5V1hmGm41pdzJrHkeh0FtNvP73oZumojapLaJ1ocnWjqOlBrrJ/e9Stud52qbabAx1mJriWy2gHvQlSRyu9FpxW32bRB/wDhlMdDnYfl7UlhmGxO8fvu5Va3ltOigu+ZLQSQoy/Wz7TPOJ9qqlwyyQ0jWAQRqfA/aaz+PkUUyuSLYb5Qn6h5zoem29XfCrc4e/PVF/7zWcuu1tspMxBBjcHUf5Vq+Bp/udxv5rgP/SOvjT+XNSgmvsbAqkzKWxv51YXGjDINyXP6UmywzDvNNYZgUSYOp06RG9QirkkO3xTZf8NwZYMY1cgnugAAVJbZtviBsVTTzj9ab4JcJgDXuqy4xgf4wJ5oC3kf8q9jBBI86crexWxh8ttLY1IGZvHf76edVeJbI622BIY6wYIPcYrc4bCqqgGA57T6a9y+Q9yelZH4tw5zrdCwo0B21P8AlXn+TkWXOo/CN+GLx4XNdkeD4rt3MugW08c4lkXfn9RHmaqPiG4q33K9kNBgacteXWm+BiLd5uotqPNjcPtbq145wT5mBt3FE3c+aOZV+wAP+k+FehCoow23PZlEeRInxMgeW5NSBO537/8AMk+ZoOM4PdtiXUqNNwTv4TU8H8pTGdmJj6FYx10MFvUUY5FLoo4tdhL2JDDKxEdNTtPQ15WB+kkeMx6zRLdyx+N7wInZFUEctC5IPgDQL3EbQnJYU9Gu9tvtApuYKBNhzcbs5mgakKzDu2JrhwrlgkQdNCefmSane45dKhVb5YBnKioonypP/a96frmJiQDvvuKlKSWw0M8Twi2t3V7ggwqjJvzbZvKqa60metHxOIe42ZyST+9ByoWQdahP3dDLRFBTQAodm3vpTK1XDHQGxdxMCOY1NPKjJekLBXVehE86E8Gn7RLDOTMD7f3IrJ5a4qyuHZHHYhdSg0JiDyMbEfiHf3GhW7OawRl/qA7wNI8QGHiKPcZTKAAdTvMb799SsvEK5BDATH9WunSPvWGDSRdqyvxRBtrciZ7J9JX/APb0rT8Juf7oo6yaoMVYCo9uR2W021gkCPIzTfB8dp8s+A8gKrK5Yl+QQpTYli0i43fQeH3QGINNY8fxD4Utwq3qzRJzAL4x+VPgVzQmb+rNr8NOpcZtBvrrPdFarBYT5l9miQsQD3fSD4b+MVk8Bg3KhkTT+didT3AQa12CvPaQ6DczrOvnXoZvIjjhxXZkhicpW+i5+Qeek84qo+JuEnEWRYQhO0CCdSTsSY1mCdP86Bdx+Jb6Bp40xfwN4hCbhDRJXo3lAPma8nnTtdmttdMwnDMKfkohDauxeAdAsr/zfUIrbYG9mKRoqx2NJiNJnaNNByo3+qZmP0592AJVp/mKzr4ivYviS2mCBBoJllnuns7DvrRPyeeNx6JYsfHJfYT4mw+fDgGGJDCdpnSOor4lftvbZrZkEaEeH3FfZ0Z71wBVWT9J5DTU1nfi/wCDL91luK9rOBBBlZG41gid943pPDlxbT6ZbPyk+j5rrXAxp7D8PutcNtbbM6khlAmCDBmNBrWi4f8A6P8AFXdWy2x/UZPoK9GUox7Znox9y2d96+i8H/0a2MQiXUxL/LKg/SpJJE6HYAaiCCQRvRLP+iljvi1/+mfvmrSfDo/2fbGEuAQuvzVGjs5LNqTsNBtyqGXNFK4sZRMZ8Sf6OflBXs4lGTWfm9kjwKA5vCBWMxHD2t3GtsyyBymDziSAR5ivqPxG1t7brYUKwDMpG4Y6z4yPevlaatncliW1J3J569aSOSTVnNJA7VvK8HeYogY01cX+JA5ECdpH7ilYq3jz7JyClKZwb/UhOhH2I28poDk8gaEr5XDciINJ5S542Vx+2RcW8P2QwXLA2O/n1P60lcUGCOnrGlN4fEbAtzM+BAAPqKXeBoNht515uN7ZqkAxKGRPNQfdh+VS+VCgjeJ8wSPtTPEbcMg/9IH1a4fsa4tssFH9J+5rW3/AiKX8jAO+fKdjtPnp96sfhjCC8yJrH4o6E9rXqYA9aqMOs6d9WPAsQ9i218aw+UgncDf7+1Dx0+VI7KtbPobXmLKqDLbBy6Dp0/Wnr/BbtwEhlJEHskA6ciDvVX8McW+cVOUKpGg75HXzrVXMQqmCRry5k0k472c0migtW71piptgqQN5jzgHPpPvtQX4pdV2PzBk2FsgkDluB41tlxIygHnoP0qk+NcEWtA2wAwM/kfao8QLHsqLPFXyyQpI2JkR4dKq8Viblxg2aW7xI1331nwqHBMO9xoLGJ5RsOpOo/vWr4bwQZhplneJk93hTRxMrKKi1w7G/g/Bsqm6+50XcQOe/Xv6VZY0q3ZMakKD3mT+VGvXQsIugA9hVRxG7ly9Zdv+VGA92FXjGtIKuTtlIipbvOSoloBI3008+XpV3h8UpGnKqC5h2ZCymGymCf33VlrfxCyHUxG4/Wp5dMTjs+mNie+leItmQgwawifFALSW7PdV4/Fv4YbcMJ8qjYeJVKpVjHKsMbUXbg3Qs2nTUxWr/wBrLLGNCdKz74NmYkkS0kRz/f3iq450tiTiKic2vIgehEewpdkMnSmgDrPd6j+1E+aNfE/erYptMhxIOI29K6vD2YTA56sQu/iRNMfNFshtG5HXaZFRdLTnMc556uI8uz+dJLPo0rGAsYF1JBKkDoQfcUa7YK6kbfei2b6hwMuReXMknQST4zVtcdI1zFgNhA16CNfOs8pbspGPwUuKfO7Ny0C/4V0FTQkOP8P3E/nVqtpSJZcv+KKrGcG8Y2Gg8AAKr6qkuKQODi7KzCb+YqywaRhb4OslI7iWOo/6qQwySx8vvT1xyLZQa52XSNdJOnrWrxI/yWRzPVD3wzjWCBeQkDlzOnfpyrRrjIOcEydOp96yuGwV1LRBRkLP2ZjYRr1mRNXFq8ykczQy1zdDQi6RueChndWfRFBKydTtr4zFWnxNc/gyNZHrJArG4fidwNlO8e3dWjJN1FXkoGveKztbGSZLgHDAiAkCWEk9B0+/tVrexgQjqRoOi/qaiLiWrWZtAPUxsKz63mu3C50Lew5VVDUXKXS2+9VfGr31DooXzY5j7KPWrROyD96y3FcTBJPN515/uAKYdIuMMg+WpHSsF8QcGi6yqNGkr07RLGem8eQrecK/4QHPX9+9VXG1UMGeIiBvvuNvP1pMnVkpI+c38DcQ5WWOXXkDy8RV1wa+Wtm2269eh/Si28eUcm3bzctQdt9Jp61jmuyCkNlJ010HXePWss8spKpIdQXaKS5hMgGYc9IE+dLs/wBUdqdQApVh4GCBWrXhZNsNqS0QBoYOg1JjYE1Q3sKiA9q6ADH06SOWaYnSljOL0FxtFLig5MkEzqRMnpXfk+FWGMcTlEkLpJ/z2pae4VohJpE/TSGsW9oghx2v6AffN/aqhcK5MJ10HP7UwWLkkxO5Ou1EtXVXULJ6tPsAfvNZVJoq9hsPw3LqzNmHPSF9/c09au2yIDsWEcwNOZkjUDu5VVXLxJBOseMf2qa4cT9YUbgw3l30rt9hWuiVzFkmTE+p8oE0lhn7TDnrHjTOMuFSZYEj8Q3PnzqnIYmRvvVsUbsWbLnhuFJmAWdjAA7tTWjsfDd1ZugE3CNCIITnB1nuqp4Ji3TNcW3miOXM7xW04b8WQJuWXGm8fc1shKkGOPV/JW2cBi4g2sxbXMIy+szQwbtxylwpmWFgrlK9xAA0rW4b4nw9wi39OfQTtr31PiHCAX+ZlJMfUNyP6gNSaUeNLUkVuF4DBVywJCwCNp8OQq3sZUUknsJ9R6noKEt+2oh2iRGUfV4a1XYwPiG+WP4dtfw9AebdWPL1oSaStnV8EHv3MU5YHLatns95H5D71YJuBPaY69wHP7DzplLaJbCKIAGg69Peu8PwLLmZl7bRr0HSl9aCXYoRreYqOh9TWN+JrjNcMKci3CuaNNIEd3Kt4tsgbRHj6yKzo+ILKOZJMSGDIe1vEdD41L91y/qjojfCuyhnTaCeh6elSuYcHVhoCCGnY7/alb3xFYBjK5E8o26ifsaXxXxEFB+Uy3gSP4bIykDWZb05c6zZcs566DSQ1d4I5uq6BSD/AOIpHZ0/Ep+pTtprr50x/sULqqqjkidJUjYqNezI5+1Zq38SXUc/LRFtRpbc/TpybcDu26UnhuLXYbNfYyZ+psg5jtHTlyPKocQ7NTxhdVVNG0lQJgECF6TIoTYBbwytnyjXN9Kgjc6jtHflG9Zu1xO7auC9bT5kjW44JDTuQeda3hvGBftkL2bhgEEZsrc9D0HlQqnYTL8X4MphrK5hEGVgiNoP4tqzxwzdE9a+s3FcJltMWJ/8TsGP6YXY98VheLYRfnPlQkTyKgTziRMTNVjkaOqyiXDJB7aqDz0G3Lv8p2oF6ygOjlx1UEjw0IrowqAxlknadT6CuG2o/CPtTIDQuzpyLen96mrSCJkdwaR36iKYQrzLfemxhmP0q46iVX2Ao3QOLKJ7TE6Anw196lw/CNcuBVRmgjNA2E61a8RthQMxg9AzGfQAUvZcNEIFg79on1MxVsU22kdwtmxwHBgBmLZQNlJVY8ZYkmn7WAw5nOxPTI59wdKz9izeYAZlHT/hrP8AzxPlQsTw++Ds4PQrl9IEGtdlFj+2XbcMwhZkRTmEHfWDO3hHvTRw+JtgBLxyx+ONvMVUcEweJF4dnKxDBs4gRHTSfLpWjxWHYAElXG0Dae+uo6VJ0LcNwtpWkvnc8zoBO8dPGr6zgQNRzM8tfTeq3hqoWDKNQdVPXu5xS+O4t8q7N8qGcj5akxlWYzOZjyHrWbyJyWkTfZb4u4inWSZHI6d5iNKVx+IdApSCNAWU8+4Hzp9iSBmgg7c5A3JodtdAAgOpy8hpqTHdO1YKOTM7xjjSJm+Zcdm2a0kSsj8RnfuEmqbH8YYNFuwpY7L8rtR17QJ84rSYe1ZDF7SKCx7RAiTMmffSjJm+askLbKyYA7RbYT5H2rvU+kMZknFXYU2Ykakog07iYj18qNY+FHMtccidkXten0qPetTisTZt5gXRGUgGdgWiAY2JLe9V+O+KbdgXCxW5kIBVd1J5QQOu9Byk+gBMJ8LWVIMXM388mfTUV2/wUM3YxLCCAytbV4J2+oaVncR/pEt6EWng7FSvmCGUfnS1r4tsqWZLjJ8wayuYqevZWJHQ0yhMFm2OHUBVc6nQMNJI5x9IqN2yqQ6kKQQTMax3isDjviGxej5uLubz/DW7bnvIHZnyqpfjF5VdLOLR7bBgFufVBnY3FgHwIFMsLByPot7itrDlRcCWluEiVPZ3MEkABQR378udJXBdJJtrZdPws25HU6e9fLMHiLkG3nbI0ZlzdkwZ57eVWoxA/wAiv60ZY6GjIvlsFh/xVaPxMjED/wBzL+dEt27B0JV26W7ZE+u/lRhwdzBv3Qgjae03+EHYeVGWU7Ni3kHNyAzt4HlSNjEmw1q2mdgbXTsqXPhqaRxzzaHykgsfxmCRvm0hQJgba60S7gmnM4zvyDMMq97drU91K38G347w15Zp9lk1yOK44It9dtT32jr5gSPtUcPb+XmNt1giCWGb1DLpy1nzq1tcKuABgrHWAYZB4xExQ8Zw4oQS2Unc5gI8iZqinXyDiVrvdTXMpU69lgVjvq1wXxe1tcgJjaFLGPAEQPKhpgWYEIHZeuVVUTvLsBFIrg4fKWK+B08J/OqRzSXyG2aW38XNADOSDp9MsB3GdPOgXfiiyBGZhrMFdjVVh8GWJhCxHKSw8S0wKljOEJaXPcGboqanxO2lU/dHDKfFiKGCto2+oExVDxviH+tF7s6qkHtTOun3oeKNsGAms9ZjukDegLl1BXKG0J5x1FCWXkuhG7C4v4hxFxbbNcIZBkDKXBIBLAmDBOu/dV1w745vIhR3Rwwyz2hcQEAmDEHmJOs+ArM3sHv8vVeXU9+0UEYdwG7JgbwJ96FRZPZv+GfFVl7Itx8p20JBmZaAo03I1O2wqt4/8asQtqyF+WoG47RA0ieQIE+fdWJzaCvTQWKIeTLi7xy58xrltmQtAOsyBrBmknxzElmJLFsxJ3J60oaItlm2Hny9TpT8UgW2QZ6jNMDCnnPkC39vej2cKCJVGbvJAHoDXckgUxCamLZNP/6rd3CgeAX9a41hxBIJ8RP+dDlYeITC4QhZg6jdSreomu/60w07J7yuvnQHYkyYHgAtWVnikKBrp/Un60jseJYr2mBdtSdWaWPsdavMNhwn0IAY1Z5DQeiL9I8TSOFAt2zctqC4fLmfWNAeyBpPfSN/EO05mJExGwnrAqHZQvUuqmgJJ5CFtr5kAn3pZ72IzEqyrPQ5iB0DakD0pfC8KuOoOYKvdM+kD712wtkEKFZ2kCXMLJMfSp+5odBCWsJeuGCzsObEkKP8TGmRas2R2Qt1+pKqnuZbzpTjPEWJNleyimCAAJI5wNAOlB4dws3T9QAiTz0rvyANdu3brCSpg6KDoPALR04YPxsGJ/Au/mdctCF9UIt2VyljlznVjOm/4R3CpY3Ei0TYQQxjO+ksSJgdBQ38BDuWtKFR1aPwlTlHmIzHypG/be5PzHXXQwG5+O1ewOANx8oI2nUQI8quhwqzZXO4zx3D2E/ejdHaM3c4VbOgJdu7MT4wqSfOl73BcnK55lV/7jIrVcXu27eozrm5pzgaSJA2qky4djM3JPVUPvM0ymxaRT38CxiHbvBup7dqo2LSoCHslzyK3Q0/+0MYrVYPhNu59BjxQf8A9U1e4CVWfm+iD9a55DqR85vohYhVZNZgyT4RXLWHU6F2Hdl/U1u8RwRSpLENA5qKQT4eV9gB3lifYqRVFmQHjM3awduYD6+H96j8iGj5o037UGOUa6itZ/8A5/LILKynlkAI89dKUxuFNs5BlcRs4BjwMSPeu9SwcSoSzbOy5z/US58so/SnLNm4Cpi1biYEQ0H+YDN71DEBFYKbaroCYObfXSQI8qOoRtIb/mI+xoNhSO/MhszdoDozAfafanG4ihGtsEHnKt7xTVjgFnLJzE+R92mpYvhNtCssxBGggH8xU3JDIrrF22DAU9rTXKQO8SK8cUn8o/5EpsrZXZW9VH5GlTfs/wDkf/cP5Cuuw0f/2Q==;" parent="1" vertex="1">
                    <mxGeometry x="320" y="380" width="420" height="606.4" as="geometry"/>
                </mxCell>
                <mxCell id="17" value="" style="shape=image;verticalLabelPosition=bottom;labelBackgroundColor=default;verticalAlign=top;aspect=fixed;imageAspect=0;image=data:image/jpeg,/9j/4AAQSkZJRgABAQAAAQABAAD/2wCEAAkGBxMTEhUTExQWFhUWGSEYGBcYGBsgHxcgICAbIB4eHyIfHyshHh8nISEfITEoJSkrLi81ICszODMwNzAxMDABCgoKDg0OGxAQGy8lHyUtLS0tLS01LS0tLS8tNS0tLS0tLS0tLS0tLS0tLS0tLy0tLS0tLS0tLS0tLS0tLS0tLf/AABEIAFcA/QMBIgACEQEDEQH/xAAcAAADAQEBAQEBAAAAAAAAAAAABgcFBAMCAQj/xABAEAACAQMDAgQEBAQDBAsAAAABAgMABBEFEiEGMRMiQVEHFDJhI0JxgRUzUpFygqEkYsHRFiU1Q1NzkpOxsrP/xAAXAQEBAQEAAAAAAAAAAAAAAAAAAQID/8QAHREBAQEAAgMBAQAAAAAAAAAAAAERAjESIUFxUf/aAAwDAQACEQMRAD8AuNFFLfUvU6wyLZwvF87MjGFJSQmR23kcjdyFHqRQdPVPVdrp8fiXMm3P0oBl3Pso/wCPb71O9e+IV7Ppr39jshjjmMUisu+RR5dr5+kckZGD378Uu9K6hK+pXFlrKktfKI28QAFGXJj8MjgIckKV4zg0zfD/AKWktLnUNLuFMlvPF4kcmOHXlDz2D4IyO+Vz2xW8kY20p6leXdzoXzj3EzSxXZV2DsMxkKMYUgYDEHtWZq1u6aJZXW9xJJPIGfe25l5CgnOcDZxVT6T6Elj0i706faDI8oRs5BBC7HOO3IzjvXVdfD7xNLs9Pd0/AkjeRsHDBSS4X15yQM1ryhiba7q99ptlppS5mWaZJJpd7FwQSmxdr5A2qcfqTTo3xDuLCOzOpoHe5RnYRLhoQNu0sCcMSDyBjBra6m6Oa81SzmdR8rbRliMjzPuBVdvtwG9uMUoa/oTa3rLgblsrMCGSTtuYEl0T/eJO0n0Az6jM2UyxVdE1y3u4xJbyCRSAcjI757g8jsR+1aVQu31K/vNV/wCqMJbWgFuhPEGxe+7H1bj2A82ADx3qudPa/FdeKqPG0kL+HII23AH3Hrg8/wBiPSs2Y1K2KKKKyoopC0S0/isclxNPcR4nkjiSGVoxEqMVGQp8znG4ls98DivYA31/dWkskqw2ccQCpIyGVpAWLuykMcAAAZx3PtVxNO9FSPXJ5VtNYs3lkk+R8OS3mLt4ih13BS4ILFeRk8kHmnDqbVP4fpTyQgBo4h4YYlsElV3HJywBbJzV8TTZXhfXaQxvLIwVI1LMx9ABkmk3S+nr2O4gmWXCjPzO+5kl+YBHcKUCowbkbcDBx2pS1WY3FrOrzT/xYyvELdXfGC5CxiP6DEYiCWI9SSc08U8lhtp1kRXU5V1DKcEZBGR35FetJmotJHq1giyyCOSGUNDu/DzGq4IGO/m9fYVxdP2R1SGS6lnuI3aWRYRFKyC3CMUXCqQGbjcSwOc47cVMXVAopZ+HWry3VhHJOQZQXjZwMByjsm798Z49c0zVFFFFFAUUUUBRRRQFFFFAUUUUGJ1lr62NnLctglF8in87nhV/c/6ZqLT9HNqytqFhdGSdiGmgmIWSJx6K68AD8nAGB3pg+MPUtsL2KzuoWnt0j8SRUcqyOxIVhg4Yhc8H+qufpTo5N4vdD1EFl4aGcen9Em3DAfqv3B9a6SZNYvut3pyxfVbc22rWssd1aFdtxjax9QyOON3HmxkHg/pTlFfkecDdjOOcds+uPtXHreni4glhZ3QSKVLo2GX7g1i1p7PfRCRYTIolcFlQsNzAdyB3IFTXpXq27l126tJJojCoYKgBwNmMBD338+fPHBx6Vjab0he3U0JOr2xktAywPFh5ducZcZGeOCG3f61rW3w6u0upbiHV/wDbGUCVjAhJU4xuXdwDtGOPy1rJE2qjHMrEhWBKnDAEHB9j7Vzatp/jQSwh2i8VSpdMbl3cEj749akMXS9/aM9s+pWscdzMJbiYSFLk++3PPmxxj1J9M1aY1wAO+B3NZsxe0w6xuJLWFNH0e3cysmXZBjwkbI3FzxvfnzE8d++KVLDRf+jyrdz3Q+abAW0i5EiZ8ysTz9w3ABHrVr175nwH+UEZnIwniEhQScZOAScDnHrio7rPw4gg3XWsaoSznJ2jzOfZc5Y+2FUAfatcali2WN2k0aSxsGSRQysPUEZBr3qefCTXbWZZ7ez8ZYbfYESY5OG3ZYeoBPoTx9s4qh1mzKsulM9EhJpJba6uLZZm3yxRlNjMfqZdynYx9StdOpdKB5luIJ5becIImddrCVR2EiuCGI9G70x0U0wrX3RcclrLbCaRfmG33EvlMk3uCSMKMAAYGABgV8RdEq0jvdXElyGga22OqKqoxBONgHm4HPemyim0wr6R0w9rj/bbqaKIfhwsU9BwCwUO+OwBOO1JOhurWxnj1drVmZ3FsPDkMDMzN4ZV18R2BPI9fT0qvVyrp0IfxBFH4h/PsXd/fGaumFqw0Ce4azvbmWSK5ijGYkCbFLgeICCpJ3YHr5fSvY9H7JJGtrqa3jmYvLFHsKlj9TIWUmNj64ppoqaY5dL0+O3iSGFQkcY2qo9B/wAT6knvXVRRUUUUUUBRRRQFFFFAUUUUBRRRQfztrfWVmb+5W80+G5RZnQSg7ZcKdoyc4fGMDtwKfvhxYaJPL81pyMk0Q8ybpAVDAjzKWKsO/uOKnE/Wskd1NCunWEzrM65+WJkfDkZO3uT71XPhxfXUofx9MSyXAIZNq7z7FMbhxzk105dMQ7UUUVzbRXriBrbVJdThGPk2t/GRQPPHKHVzx3PAXn7e1fdjrz2epxahdOVttUiZju7QhOYVOM5ITb+7mtjqBDNqN3YKSDeC3EhHdIEWQysPQE8Rj7tU8PTrPFc6csLNe2TvKJizlfBQblAGSu9yVAAHb9K6ximfpiF36ijmuBmS4tTcbGH8kNxGgz6rGFyfcmrXUX6O1sXuuWtyCCz6f+IB+VwSGH9+f0Iq0Vjl21xFSXqfpHRknkn1G/leQsTsecblB5ChVG8D2FVqpF8QtV0uC6k+a0mWVuN1wI8K5wOzZGcDAz9qcSuX4f6rpQ1KOHTYp4y4YPLIxxIqgttCsSe+DnAIx9zVnqG9E6zpM+o2y2WnyQTbmIlMhwoCNu8u4g5HH75q5VefacS51X1P8s0UEMfjXdwcQxZwOO7ufyovc+p9PXHMui6ow3PqSxuedkVrGY1PsN5LsP1Ipb0WXxOqLzf3itlWMew/DJx/6j/eqhU6Oyj0Lq15JJeW16Y2ltpFAZFK70dSVbGcc49PuPSu/rnW2s7KWWMbpiNkK4yWkbhQB68849ga2hbpvMm0byApbHJAJIGfYEn+9IfVXUdsuq28VxKEitYzOeGO6V8pGCFB+lN7c+4pPdW+oYOgeoPnrCC5ON7LiTHo68Nx6cjP71l/E7VbyytnvLaaMLHtDQyRbg2WxkMGBB5HHbilv4SarDHfX9jC4eBn+Ztzgjg43KAQDxlR+xre+N3/AGPc/qn/AOiUzKm7DL00lx4KvczLK7gP5YwgTIHlHJJGfU1rVyaR/Ih/8tf/AKiupjjk9qlaIXX/AFy1jd2kSDMZcG6bGdiOdqc+hJ3H/LT8KiN/rFhe2eomacLPduWiUrIdqw+W3HCkc7Sxwf8AvDVC+F2u/OabBITl0XwpP8ScZP6jDfvVsyMy+3je61cXN9NYWkqwfLorzTFA7bn5VEUnb25LHPtiue0n1G21G2t7i5W4t7hZMOYVRldF3bfJx25++D7V4dY9LXkd3/EtLdfHKhJoH+mcDt/mwAOSOwwRznp6N6+jvJflbmFra9j5MMg74HJQn7Z4747ZFPgeKQeiOuWvL+7t3GEGJLXIxvjBKM33BOGB+9avxK1n5awkIYI8pEEbHPlMnlLcc+Vdzce1TjqHX7G2vNMurOYOtuBayja4/BxgElgAceY/rikmluLHq0Ezx4glEL5yGKBx+hBI4P2NJPwv+ILXxe3ugqXKZZdoIWZM43KD7ev2598ULNRq16WkuNIs720O2+tN7REd5FEj5jPv64/cdjSdLTr8R7+8tLd7u2mjCx7QYZItwbc4XcGDAg+YccjivLq/Ub6yso/DlSe6luEiUmIKp3k+UKD6e+aw9e6qj1HQJ5lG2RfDWaP1jcSR5Hvg9x/zzVMmtUcozKGKHchIztOCMj2OCR+9PiFS5ttTijaSXULZERSzt8qcKAMk/wA2uP4cazqF7FLPK0YhL7bdvCKtIqlgXI3HAPGOfQ1ndZXL6rejSYGIt4iJL6RfYHIiB98/6/4TVItLZIkWONQqIAqqOwA4AFPioV1X1teaVeT2sEdsoDb/ABWi88viebc5BG5skjt6U4fDq/1y6lWe82RWuD5DGFeTI4IH1KM85OM+1eXxZc2UsWpx2sE77fBLyhj4JySjADjnJGe4496XelE1XW38W5uZIbFT5vC/DEmPypjkgerEkD05rXc1n6uVZWs67Fb4EglJYEgRxSPnH+FTg19aJrVtcb1t5Vl8FvDcqSQDjtns36gmlb+MSW1/OWZnhnkEMaEkiOdY1ZFX2Eqk/YFPvWJGrXnp9hZreCZ4b2O8JCl2Mz7gcYBdSYymMZHpjB7U23OhwuZm2lXnVUkdGKsyrnaMg5Hcjip7Fcz7II3mklY6tLC/4jL4ihZfJ34UEDA7cU76LBc29iRMfFnRXZRkt6sUj3HBcgYXce+KtSFSPpnR7ObdbRTfMoSqrA8xcnHI5bbjGc5OKd9M1yCc7Y3Jbbu2lWVgPuGAwc8VP/4xdLZQ3K+IzkQyi4MoK3EkjxhrfwgcgeZkHA27c963LiGVb1rEyu0N0PmVYyPvhEZUSxqc5CsShXB4y49qtgdqk/U/xC1OwdlvNOiaEkhZUdtjDPGSQwB+zY/SqD1CqyRNarc/LzSoRGysA4x6qMgnH296jmodcatpjm01CKK6QggGQfzV9w4GG+4Zcj1pxhyrZ6B1S11C/Wa1sFtZoQWlkDAqyMCpUKuBvJ5BI7A1YaR/hXpUCwPdwW5thd7X8Itu2gZA2nHCnJYD7/tTxU5drE5620C4gv4tXskMrIvh3EC/VInbK+7Aen+6PvW1B8R9NK5a5ETfmjlVldT7FSM5/TNNlfDRqTkgZ98VNCF091cHlvr2fxY7UNHFbb43G8AMWKrjLMzH2zjAr0+F+qRTC4diy3dxK88sboysi52RryACFQL29zT5RTTEo+JOoJBqljdQb3ngbZcJHG7HwW9SQuOAWwM+v2rp+LWvwXGlvDAzSyTbTGiRuSQHBJI2+UDB74qnUVdMIkfxGsorcAGZpEiACfLzjcwXhclMcnjvSwvUzrooSRpTe3hcviORmjWSRldyADtVY87R9hirFRTYYytAu7Y2qG3YGCNdinBG0IMYwQCMAVNehtdgtNRvolL/ACVw4lhl8KQIJGxuUHbgA5wD28o5qv0VNMTrTuuo7S8vbW/kaNFm328kittKsASgYDGFPb7HHpXjqfhanqNhPZjetqxea5Csq7eNsYYgbyTngZxk+9UlkB7gH9a/QKaYm931Taz6rAWdhb2yMY5DHJsknchPq248qZwfdjW58UUgfTpop22+IuI8KzEyDzJgKCc5FNtFNMT7oXreEafELtninhQJIjxvuOOFIG3LbgB2zzXp8INVjNlFancs8e8tG6MpAMjEEZGCMMO1PtFNMRv4q9JTQPJeWSkxXW2O8iVc58ykSBR65HJHIJz6mnf4ldRy2VmWgjd55PJHtQtsJHLnAPCjn7nFNtFNMS7oTXdN062EXizSTOd88vy1wTI578+HnA7D+/cmsnWtXk1K8lMfzKW0KosO1ZY95O4u2MA9wBz6AVZ6Kvl71LNmOHW9KjuoJLeVdySDBB/uD+xwaiHUEes3l7/CTshjRR5YFKQ+F28Q85K+mzOM8Vfawur+nvnbeSJZXhd1KiRODj+lvdD6inG4tmpZP1YlmIdI0MB5DIEe5IDBnJwxHox92+kAYH2qS6nZpdrZkp81KPGKhe5UY3H0DYHGecCov0/pp0OSe6vkXx418KzjHImdu7qf6QMAn0BI717/AA6vTGmoa7dnxJFBjjLfnkbGQPYcogx2Ga1Z/GZVwTSLfjEUflkMo8o4kPd/s337131Fui9Zlt9B1C/aQ+PLLIwY8+dtqAgf4j/pXl1b1tdwafo9yszb5PPN2/F2BchvcHJrPjV1X49Ht1feIkDZLDjsx7sB2DH1IGawrjW4J/mprFY572zDR7WDAg+q9gcEg9uCR3pQ+KnUJtb7Sr1GPhYcsAT5kbZu49fKc/tWL1vetpOtR6hD5obpA7qp4kHAkA+/0yA+5qzjS1z6nJH1BCJoVEOqW68w7sCdAc+QnnIPb1BODwQa8Ph+L3VHaxu8z2kfMxnU+JAQeFR/rEhIxg54zXu/Rr3uqC60yUR20u25+YU/yGYkOm3vvJBO04HPPFXOwsViBx9THc74AMjYALNgAZIAq25Ek17xRhQFUAADAA7ADsBX3RRXNsUUUUBRRRQFFFFAUr6tq8zXhsoZI4G8ESq8ilvFJLDagyBhcAtznzCmik7qjZNK9vd2cskQCvbzRIzFWIO7DLzG4IBB4Bz9qsStWbUp47HxZI1+a2AeED5WlPlVQc/SXI/Y1zWevST6Z83HtSURFmVgSFePPiIRkHG5WXvWNaWl3Ktja3gnzGDJLOn9YyIlLjnIUksQMZA96+LK1ltxqdssNw8Mm+SByu4s8iESLknP1+YE4B3H2q4mmvpW8kntIJ5Su+WNZCEBAXeAwUZJPGcZrPfqZhqSWm0eCyMok9fHUBzH/wC0d1ZujapcwW9jbraT/hxBbhin0hIvpTzeZmfCjHGMmsy+0Ob5KO6Rblr1Z1ufBJOPE3ZdducBdhZM5x2NXDTDddRSwanHayhDBcJ+G4BBSTzYRjnBDBWI7HIxX1r3UEqX1pZw7B4xYyyMCdgVSyqMEDc2D37AZrL6gs5LyWZUimj3W8bQysmAk8TvImeeCCQPY5IzXOLW5FxYTywSbzJJPc7BuWEvCY0TPrt4HGfU0yJtMHUnUjW09tGEDRu4Wd//AAlkJSI/5pOP0Bry6u6ilspYX2iS3YN44CnfEq4JlHPKrkbhgnHIrGvtCN7DfyTLdRPKdqRjI8qfySFBwx3ef7Zx6V2Wt3PLJp7T2swYRulxlAVRmVV555UkHtnjvTIu1p3OrSi8iVZIvlXgacttJOE29mBxtIbdnHpXNp99fXkPzMDxQRuN0CSRly6/laQhht3d8L2B7k1n6b0tLDdPb43WJglWF8+aHxWTdCcnJUYLIfQceldHT2ozWVstrcW07yW6eGjQxl1uFUYQqR9JIwCHxg/bmp+H609S1m4jsBN4I+bZAFgzwZSPpz7DBPfsK09C1Nbm3huE+mVFcfbI5H7Hj9qWRHcXdxbLcRzw+HF4jNGcKJnGCm4HsilhnsSftX50Z4loLi2aG4MKTM1u5Qncj+YjjnyuW5OMgg0sJTrRRRWWnHqulQ3MZinjSRD3Vhn+3sfuKnnVvwueS0itLKcRwwu0gikBIdmJOWcc8ZIHB71+0VZbEs0rdQ9N6jFpMGnLbg7JWknkWWPa3mYoFDENzkE5H5awtdtJ7mw061SJjNbCVJV3IAAxGzBLYOR/8UUV1l+sX+GrV+kLzUbHTbcKqTWyFZjI42qMKq/TksSFzxThpfw6RrW2t9QkF38sSY/KVABGNh5y6j0zjsKKK523pqT6dLW0jjULGioo4AVQBx27V7UUVloUUUUBRRRQFFFFAUUUUBRRRQFFFFAUUUUBRRRQFFFFAUUUUBRRRQf/2Q==;" vertex="1" parent="1">
                    <mxGeometry x="380" y="96.5" width="253" height="87" as="geometry"/>
                </mxCell>
            </root>
        </mxGraphModel>
    </diagram>
</mxfile>